<mxfile host="app.diagrams.net" modified="2023-09-14T18:01:24.375Z" agent="Mozilla/5.0 (Windows NT 10.0; Win64; x64) AppleWebKit/537.36 (KHTML, like Gecko) Chrome/116.0.0.0 Safari/537.36 Edg/116.0.1938.81" etag="Mljlopdq9Z-XdDLFW7L9" version="21.7.5" type="device">
  <diagram name="Page-1" id="_MSfGqWn40to7RCL6DaZ">
    <mxGraphModel dx="2307" dy="1536" grid="0" gridSize="10" guides="1" tooltips="1" connect="1" arrows="1" fold="1" page="0" pageScale="1" pageWidth="850" pageHeight="1100" math="0" shadow="0">
      <root>
        <mxCell id="0" />
        <mxCell id="1" parent="0" />
        <mxCell id="2XRqeH8deaUO7jPMOuso-1" value="Internet" style="image;aspect=fixed;perimeter=ellipsePerimeter;html=1;align=center;shadow=0;dashed=0;spacingTop=3;image=img/lib/active_directory/internet_cloud.svg;" parent="1" vertex="1">
          <mxGeometry x="400" y="410" width="50" height="31.5" as="geometry" />
        </mxCell>
        <mxCell id="2XRqeH8deaUO7jPMOuso-43" style="edgeStyle=orthogonalEdgeStyle;rounded=0;orthogonalLoop=1;jettySize=auto;html=1;entryX=-0.165;entryY=0.525;entryDx=0;entryDy=0;entryPerimeter=0;startArrow=classic;startFill=1;fillColor=#008a00;strokeColor=#005700;" parent="1" source="2XRqeH8deaUO7jPMOuso-4" target="2XRqeH8deaUO7jPMOuso-42" edge="1">
          <mxGeometry relative="1" as="geometry" />
        </mxCell>
        <mxCell id="2XRqeH8deaUO7jPMOuso-4" value="Control server&lt;br&gt;SecretControlServer.com" style="image;aspect=fixed;perimeter=ellipsePerimeter;html=1;align=center;shadow=0;dashed=0;spacingTop=3;image=img/lib/active_directory/web_server.svg;" parent="1" vertex="1">
          <mxGeometry x="405" y="210" width="40" height="50" as="geometry" />
        </mxCell>
        <mxCell id="2XRqeH8deaUO7jPMOuso-20" style="edgeStyle=orthogonalEdgeStyle;rounded=0;orthogonalLoop=1;jettySize=auto;html=1;endArrow=none;endFill=0;fillColor=#fa6800;strokeColor=#C73500;" parent="1" source="2XRqeH8deaUO7jPMOuso-10" edge="1">
          <mxGeometry relative="1" as="geometry">
            <mxPoint x="-133.5" y="880" as="targetPoint" />
          </mxGeometry>
        </mxCell>
        <mxCell id="2XRqeH8deaUO7jPMOuso-10" value="" style="sketch=0;pointerEvents=1;shadow=0;dashed=0;html=1;strokeColor=none;fillColor=#505050;labelPosition=center;verticalLabelPosition=bottom;verticalAlign=top;outlineConnect=0;align=center;shape=mxgraph.office.devices.workstation;" parent="1" vertex="1">
          <mxGeometry x="-160" y="940" width="53" height="56" as="geometry" />
        </mxCell>
        <mxCell id="2XRqeH8deaUO7jPMOuso-21" style="edgeStyle=orthogonalEdgeStyle;rounded=0;orthogonalLoop=1;jettySize=auto;html=1;endArrow=none;endFill=0;fillColor=#fa6800;strokeColor=#C73500;" parent="1" source="2XRqeH8deaUO7jPMOuso-11" edge="1">
          <mxGeometry relative="1" as="geometry">
            <mxPoint x="-13.5" y="880" as="targetPoint" />
          </mxGeometry>
        </mxCell>
        <mxCell id="2XRqeH8deaUO7jPMOuso-11" value="" style="sketch=0;pointerEvents=1;shadow=0;dashed=0;html=1;strokeColor=none;fillColor=#505050;labelPosition=center;verticalLabelPosition=bottom;verticalAlign=top;outlineConnect=0;align=center;shape=mxgraph.office.devices.workstation;" parent="1" vertex="1">
          <mxGeometry x="-40" y="940" width="53" height="56" as="geometry" />
        </mxCell>
        <mxCell id="2XRqeH8deaUO7jPMOuso-23" style="edgeStyle=orthogonalEdgeStyle;rounded=0;orthogonalLoop=1;jettySize=auto;html=1;endArrow=none;endFill=0;fillColor=#fa6800;strokeColor=#C73500;" parent="1" source="2XRqeH8deaUO7jPMOuso-12" edge="1">
          <mxGeometry relative="1" as="geometry">
            <mxPoint x="119" y="880" as="targetPoint" />
          </mxGeometry>
        </mxCell>
        <mxCell id="2XRqeH8deaUO7jPMOuso-12" value="" style="sketch=0;pointerEvents=1;shadow=0;dashed=0;html=1;strokeColor=none;fillColor=#505050;labelPosition=center;verticalLabelPosition=bottom;verticalAlign=top;outlineConnect=0;align=center;shape=mxgraph.office.devices.workstation;" parent="1" vertex="1">
          <mxGeometry x="92.60000000000002" y="940" width="53" height="56" as="geometry" />
        </mxCell>
        <mxCell id="2XRqeH8deaUO7jPMOuso-24" style="edgeStyle=orthogonalEdgeStyle;rounded=0;orthogonalLoop=1;jettySize=auto;html=1;endArrow=none;endFill=0;fillColor=#fa6800;strokeColor=#C73500;" parent="1" source="2XRqeH8deaUO7jPMOuso-13" edge="1">
          <mxGeometry relative="1" as="geometry">
            <mxPoint x="256.5" y="880" as="targetPoint" />
          </mxGeometry>
        </mxCell>
        <mxCell id="2XRqeH8deaUO7jPMOuso-13" value="" style="sketch=0;pointerEvents=1;shadow=0;dashed=0;html=1;strokeColor=none;fillColor=#505050;labelPosition=center;verticalLabelPosition=bottom;verticalAlign=top;outlineConnect=0;align=center;shape=mxgraph.office.devices.workstation;" parent="1" vertex="1">
          <mxGeometry x="230" y="940" width="53" height="56" as="geometry" />
        </mxCell>
        <mxCell id="2XRqeH8deaUO7jPMOuso-16" value="" style="endArrow=none;html=1;rounded=0;fillColor=#fa6800;strokeColor=#C73500;" parent="1" edge="1">
          <mxGeometry width="50" height="50" relative="1" as="geometry">
            <mxPoint x="-160" y="880" as="sourcePoint" />
            <mxPoint x="280" y="880" as="targetPoint" />
          </mxGeometry>
        </mxCell>
        <mxCell id="2XRqeH8deaUO7jPMOuso-19" value="" style="endArrow=classic;startArrow=classic;html=1;rounded=0;entryX=0.487;entryY=1.026;entryDx=0;entryDy=0;entryPerimeter=0;fillColor=#fa6800;strokeColor=#C73500;" parent="1" target="2XRqeH8deaUO7jPMOuso-9" edge="1">
          <mxGeometry width="50" height="50" relative="1" as="geometry">
            <mxPoint x="62" y="880" as="sourcePoint" />
            <mxPoint x="110" y="820" as="targetPoint" />
          </mxGeometry>
        </mxCell>
        <mxCell id="2XRqeH8deaUO7jPMOuso-30" style="edgeStyle=orthogonalEdgeStyle;rounded=0;orthogonalLoop=1;jettySize=auto;html=1;endArrow=none;endFill=0;fillColor=#1ba1e2;strokeColor=#006EAF;" parent="1" source="2XRqeH8deaUO7jPMOuso-31" edge="1">
          <mxGeometry relative="1" as="geometry">
            <mxPoint x="636.5" y="880" as="targetPoint" />
          </mxGeometry>
        </mxCell>
        <mxCell id="2XRqeH8deaUO7jPMOuso-31" value="" style="sketch=0;pointerEvents=1;shadow=0;dashed=0;html=1;strokeColor=none;fillColor=#505050;labelPosition=center;verticalLabelPosition=bottom;verticalAlign=top;outlineConnect=0;align=center;shape=mxgraph.office.devices.workstation;" parent="1" vertex="1">
          <mxGeometry x="610" y="940" width="53" height="56" as="geometry" />
        </mxCell>
        <mxCell id="2XRqeH8deaUO7jPMOuso-32" style="edgeStyle=orthogonalEdgeStyle;rounded=0;orthogonalLoop=1;jettySize=auto;html=1;endArrow=none;endFill=0;fillColor=#1ba1e2;strokeColor=#006EAF;" parent="1" source="2XRqeH8deaUO7jPMOuso-33" edge="1">
          <mxGeometry relative="1" as="geometry">
            <mxPoint x="756.5" y="880" as="targetPoint" />
          </mxGeometry>
        </mxCell>
        <mxCell id="2XRqeH8deaUO7jPMOuso-33" value="" style="sketch=0;pointerEvents=1;shadow=0;dashed=0;html=1;strokeColor=none;fillColor=#505050;labelPosition=center;verticalLabelPosition=bottom;verticalAlign=top;outlineConnect=0;align=center;shape=mxgraph.office.devices.workstation;" parent="1" vertex="1">
          <mxGeometry x="730" y="940" width="53" height="56" as="geometry" />
        </mxCell>
        <mxCell id="2XRqeH8deaUO7jPMOuso-34" style="edgeStyle=orthogonalEdgeStyle;rounded=0;orthogonalLoop=1;jettySize=auto;html=1;endArrow=none;endFill=0;fillColor=#1ba1e2;strokeColor=#006EAF;" parent="1" source="2XRqeH8deaUO7jPMOuso-35" edge="1">
          <mxGeometry relative="1" as="geometry">
            <mxPoint x="889" y="880" as="targetPoint" />
          </mxGeometry>
        </mxCell>
        <mxCell id="2XRqeH8deaUO7jPMOuso-35" value="" style="sketch=0;pointerEvents=1;shadow=0;dashed=0;html=1;strokeColor=none;fillColor=#505050;labelPosition=center;verticalLabelPosition=bottom;verticalAlign=top;outlineConnect=0;align=center;shape=mxgraph.office.devices.workstation;" parent="1" vertex="1">
          <mxGeometry x="862.6" y="940" width="53" height="56" as="geometry" />
        </mxCell>
        <mxCell id="2XRqeH8deaUO7jPMOuso-36" style="edgeStyle=orthogonalEdgeStyle;rounded=0;orthogonalLoop=1;jettySize=auto;html=1;endArrow=none;endFill=0;fillColor=#1ba1e2;strokeColor=#006EAF;" parent="1" source="2XRqeH8deaUO7jPMOuso-37" edge="1">
          <mxGeometry relative="1" as="geometry">
            <mxPoint x="1026.5" y="880" as="targetPoint" />
          </mxGeometry>
        </mxCell>
        <mxCell id="2XRqeH8deaUO7jPMOuso-37" value="" style="sketch=0;pointerEvents=1;shadow=0;dashed=0;html=1;strokeColor=none;fillColor=#505050;labelPosition=center;verticalLabelPosition=bottom;verticalAlign=top;outlineConnect=0;align=center;shape=mxgraph.office.devices.workstation;" parent="1" vertex="1">
          <mxGeometry x="1000" y="940" width="53" height="56" as="geometry" />
        </mxCell>
        <mxCell id="2XRqeH8deaUO7jPMOuso-38" value="" style="endArrow=none;html=1;rounded=0;fillColor=#1ba1e2;strokeColor=#006EAF;" parent="1" edge="1">
          <mxGeometry width="50" height="50" relative="1" as="geometry">
            <mxPoint x="610" y="880" as="sourcePoint" />
            <mxPoint x="1050" y="880" as="targetPoint" />
          </mxGeometry>
        </mxCell>
        <mxCell id="2XRqeH8deaUO7jPMOuso-39" value="" style="endArrow=classic;startArrow=classic;html=1;rounded=0;entryX=0.487;entryY=1.026;entryDx=0;entryDy=0;entryPerimeter=0;fillColor=#1ba1e2;strokeColor=#006EAF;" parent="1" target="2XRqeH8deaUO7jPMOuso-29" edge="1">
          <mxGeometry width="50" height="50" relative="1" as="geometry">
            <mxPoint x="832" y="880" as="sourcePoint" />
            <mxPoint x="880" y="820" as="targetPoint" />
          </mxGeometry>
        </mxCell>
        <mxCell id="2XRqeH8deaUO7jPMOuso-9" value="Buisness A Data Center 01" style="image;points=[];aspect=fixed;html=1;align=center;shadow=0;dashed=0;image=img/lib/allied_telesis/buildings/Medium_Business_Building.svg;" parent="1" vertex="1">
          <mxGeometry x="35.39999999999998" y="720" width="54.6" height="70.19999999999999" as="geometry" />
        </mxCell>
        <mxCell id="2XRqeH8deaUO7jPMOuso-29" value="Buisness A OffSite DataCenter" style="image;points=[];aspect=fixed;html=1;align=center;shadow=0;dashed=0;image=img/lib/allied_telesis/buildings/Medium_Business_Building.svg;" parent="1" vertex="1">
          <mxGeometry x="805.4" y="720" width="54.6" height="70.19999999999999" as="geometry" />
        </mxCell>
        <mxCell id="2XRqeH8deaUO7jPMOuso-2" value="Listener #1&lt;br&gt;BadDomain01.com" style="image;aspect=fixed;perimeter=ellipsePerimeter;html=1;align=center;shadow=0;dashed=0;fontColor=#4277BB;labelBackgroundColor=default;fontSize=12;spacingTop=3;image=img/lib/ibm/blockchain/event_listener.svg;" parent="1" vertex="1">
          <mxGeometry x="190" y="396" width="60" height="60" as="geometry" />
        </mxCell>
        <mxCell id="2XRqeH8deaUO7jPMOuso-5" value="Listener #2&lt;br&gt;BadDomain02.com" style="image;aspect=fixed;perimeter=ellipsePerimeter;html=1;align=center;shadow=0;dashed=0;fontColor=#4277BB;labelBackgroundColor=default;fontSize=12;spacingTop=3;image=img/lib/ibm/blockchain/event_listener.svg;" parent="1" vertex="1">
          <mxGeometry x="590" y="396" width="60" height="60" as="geometry" />
        </mxCell>
        <mxCell id="2XRqeH8deaUO7jPMOuso-42" value="Listener #3 (local)&lt;br&gt;BadDomain03.com" style="image;aspect=fixed;perimeter=ellipsePerimeter;html=1;align=center;shadow=0;dashed=0;fontColor=#4277BB;labelBackgroundColor=default;fontSize=12;spacingTop=3;image=img/lib/ibm/blockchain/event_listener.svg;" parent="1" vertex="1">
          <mxGeometry x="572" y="203" width="60" height="60" as="geometry" />
        </mxCell>
        <mxCell id="2XRqeH8deaUO7jPMOuso-54" style="edgeStyle=orthogonalEdgeStyle;rounded=0;orthogonalLoop=1;jettySize=auto;html=1;exitX=0.5;exitY=1;exitDx=0;exitDy=0;entryX=0.5;entryY=0;entryDx=0;entryDy=0;fillColor=#008a00;strokeColor=#005700;" parent="1" source="2XRqeH8deaUO7jPMOuso-44" target="2XRqeH8deaUO7jPMOuso-49" edge="1">
          <mxGeometry relative="1" as="geometry">
            <Array as="points">
              <mxPoint x="425" y="-12" />
            </Array>
          </mxGeometry>
        </mxCell>
        <mxCell id="2XRqeH8deaUO7jPMOuso-44" value="" style="shape=image;html=1;verticalAlign=top;verticalLabelPosition=bottom;labelBackgroundColor=#ffffff;imageAspect=0;aspect=fixed;image=https://cdn0.iconfinder.com/data/icons/kameleon-free-pack/110/Hacker-128.png" parent="1" vertex="1">
          <mxGeometry x="363" y="-140" width="128" height="128" as="geometry" />
        </mxCell>
        <mxCell id="2XRqeH8deaUO7jPMOuso-55" style="edgeStyle=orthogonalEdgeStyle;rounded=0;orthogonalLoop=1;jettySize=auto;html=1;entryX=1;entryY=0.5;entryDx=0;entryDy=0;fillColor=#008a00;strokeColor=#005700;" parent="1" source="2XRqeH8deaUO7jPMOuso-47" target="2XRqeH8deaUO7jPMOuso-49" edge="1">
          <mxGeometry relative="1" as="geometry">
            <Array as="points">
              <mxPoint x="548" y="123" />
            </Array>
          </mxGeometry>
        </mxCell>
        <mxCell id="2XRqeH8deaUO7jPMOuso-47" value="" style="shape=image;html=1;verticalAlign=top;verticalLabelPosition=bottom;labelBackgroundColor=#ffffff;imageAspect=0;aspect=fixed;image=https://cdn0.iconfinder.com/data/icons/kameleon-free-pack/110/Hacker-128.png" parent="1" vertex="1">
          <mxGeometry x="484" y="-138" width="128" height="128" as="geometry" />
        </mxCell>
        <mxCell id="2XRqeH8deaUO7jPMOuso-53" style="edgeStyle=orthogonalEdgeStyle;rounded=0;orthogonalLoop=1;jettySize=auto;html=1;exitX=0.5;exitY=1;exitDx=0;exitDy=0;entryX=0;entryY=0.5;entryDx=0;entryDy=0;fillColor=#008a00;strokeColor=#005700;" parent="1" source="2XRqeH8deaUO7jPMOuso-48" target="2XRqeH8deaUO7jPMOuso-49" edge="1">
          <mxGeometry relative="1" as="geometry" />
        </mxCell>
        <mxCell id="2XRqeH8deaUO7jPMOuso-48" value="" style="shape=image;html=1;verticalAlign=top;verticalLabelPosition=bottom;labelBackgroundColor=#ffffff;imageAspect=0;aspect=fixed;image=https://cdn0.iconfinder.com/data/icons/kameleon-free-pack/110/Hacker-128.png" parent="1" vertex="1">
          <mxGeometry x="230" y="-138" width="128" height="128" as="geometry" />
        </mxCell>
        <mxCell id="2XRqeH8deaUO7jPMOuso-49" value="" style="image;aspect=fixed;perimeter=ellipsePerimeter;html=1;align=center;shadow=0;dashed=0;spacingTop=3;image=img/lib/active_directory/internet_cloud.svg;" parent="1" vertex="1">
          <mxGeometry x="400" y="107" width="50" height="31.5" as="geometry" />
        </mxCell>
        <mxCell id="V3tIFBBqJ6qFAHLmCWsC-1" value="" style="shape=mxgraph.mockup.markup.redX;fillColor=#ff0000;html=1;shadow=0;whiteSpace=wrap;strokeColor=none;" vertex="1" parent="1">
          <mxGeometry x="-54" y="-10" width="26" height="26" as="geometry" />
        </mxCell>
        <mxCell id="V3tIFBBqJ6qFAHLmCWsC-2" value="" style="html=1;verticalLabelPosition=bottom;labelBackgroundColor=#ffffff;verticalAlign=top;shadow=0;dashed=0;strokeWidth=2;shape=mxgraph.ios7.misc.check;strokeColor=#0080f0;" vertex="1" parent="1">
          <mxGeometry x="-173" y="-12" width="33" height="23" as="geometry" />
        </mxCell>
      </root>
    </mxGraphModel>
  </diagram>
</mxfile>
